<?xml version="1.0"?>
<svg xmlns="http://www.w3.org/2000/svg" id="Layer_35" enable-background="new 0 0 64 64" height="512px"
    viewBox="0 0 64 64" width="512px">
    <g>
        <g>
            <path
                d="m7.895 1.553c-.34-.678-1.449-.678-1.789 0l-5 10c-.07.138-.106.292-.106.447v45c0 3.309 2.691 6 6 6s6-2.691 6-6v-45c0-.155-.036-.309-.105-.447zm2.888 10.25-1.783 1.783-1.293-1.293c-.391-.391-1.023-.391-1.414 0l-1.293 1.293-1.783-1.783.901-1.803h5.764zm-4.783 39.197v-35.586l1-1 1 1v35.586zm-2-35.586v35.586h-1v-36.586zm-1 37.586h8v2h-8zm7-2v-35.586l1-1v36.586zm-3-46.764 1.882 3.764h-3.764zm0 56.764c-2.206 0-4-1.794-4-4h8c0 2.206-1.794 4-4 4z"
                data-original="#000000" class="active-path" data-old_color="#000000" fill="#fefefe" />
            <path
                d="m62 15h-4-14c-.553 0-1 .447-1 1v4c0 .553.447 1 1 1h1v11h2v-2h10v12h-18v2h1.941c-.463 4.165-3.776 7.478-7.941 7.941v-8.941h-2v14h-10v-24h15v-2h-15v-2h3c.553 0 1-.447 1-1v-7h5c.553 0 1-.447 1-1v-4c0-.553-.447-1-1-1h-14c-.553 0-1 .447-1 1v4 42c0 .553.447 1 1 1h4 42c.553 0 1-.447 1-1v-4-42c0-.553-.447-1-1-1zm-1 2v40h-2v-40zm-16 0h12v2h-12zm2 11v-7h10v7zm-14 25.949c5.268-.478 9.472-4.681 9.949-9.949h14.051v13h-24zm-10-26.949h-2v-6h2zm-6-10h12v2h-12zm0 44v-40h2v40zm44 0h-40v-2h40z"
                data-original="#000000" class="active-path" data-old_color="#000000" fill="#fefefe" />
        </g>
    </g>
</svg>